<svg width="149" height="69" viewBox="0 0 149 69" fill="none" xmlns="http://www.w3.org/2000/svg">
<path d="M11.496 13.88C13.928 13.88 17.64 16.248 17.64 20.376C17.64 24.568 14.152 27.384 9.8 27.384C5.512 27.384 1.96 24.568 1.96 20.376V3.896C4.904 3.896 7.752 5.624 7.752 9.848C7.752 12.152 6.792 16.568 6.792 19.192C6.984 23.448 10.28 26.104 12.488 26.104C14.152 26.104 15.304 24.856 15.304 23.448C15.304 21.368 13.288 20.76 11.4 20.024C10.152 19.544 7.912 18.872 7.912 16.696C7.912 14.68 9.16 13.88 11.496 13.88ZM26.6013 12.216C26.5373 12.44 26.5052 12.632 26.5052 12.824C26.5052 15.48 32.5853 17.24 32.5853 22.04C32.5853 25.688 29.4173 27.384 25.8333 27.384C21.5133 27.384 18.9213 25.144 18.9213 21.848C18.9213 19.544 20.2333 18.424 21.6413 18.424C23.1773 18.424 24.2013 19.608 24.2013 21.08C24.2013 22.456 23.3053 22.904 23.3053 24.28C23.3053 25.4 24.2333 26.584 25.8013 26.584C27.6892 26.584 28.4893 25.24 28.4893 23.896C28.4893 20.312 23.5293 19.736 23.5293 15.448C23.5293 14.168 24.3613 12.504 26.6013 12.216ZM42.025 23.288C45.225 23.832 47.465 26.392 47.465 29.688C47.465 33.848 43.945 36.664 39.625 36.664C35.305 36.664 32.265 33.848 32.265 29.688C32.265 26.168 34.505 25.4 35.817 25.4C37.033 25.4 38.793 26.456 38.793 28.44C38.793 31.064 36.873 31.384 36.873 33.592C36.873 34.936 37.833 35.896 39.337 35.896C41.673 35.896 42.569 33.368 42.569 29.912C42.569 26.808 40.809 24.056 39.273 23.32C39.273 23.32 42.089 21.336 42.089 18.104C42.089 15.032 40.873 13.912 39.305 13.912C38.345 13.912 37.385 14.648 37.385 15.608C37.385 17.752 39.593 17.208 39.593 19.352C39.593 20.184 38.633 21.144 37.321 21.144C35.625 21.144 34.505 19.512 34.505 17.944C34.505 15.096 37.001 13.176 39.977 13.176C42.921 13.176 46.153 14.744 46.153 18.52C46.153 20.728 44.169 22.648 42.025 23.288ZM63.5498 19.736V28.952C63.5498 34.328 60.3818 36.6 56.0618 36.6C51.7738 36.6 48.7338 33.784 48.7338 29.624C48.7338 26.136 51.0058 25.4 52.2538 25.4C53.4698 25.4 55.2618 26.424 55.2618 28.408C55.2618 31 53.9178 31.096 53.9178 33.304C53.9178 34.68 54.8138 35.8 56.4778 35.8C58.7178 35.8 58.8778 33.88 58.8778 32.216V19.608C58.8778 16.056 57.5978 13.912 55.8058 13.912C54.8138 13.912 53.6618 14.616 53.6618 15.736C53.6618 18.584 56.2218 17.624 56.2218 20.376C56.2218 21.336 55.4858 22.392 53.9498 22.392C51.9978 22.392 50.4618 20.536 50.4618 18.712C50.4618 15.416 53.2138 13.176 56.6698 13.176C60.0938 13.176 63.5498 15.256 63.5498 19.736ZM74.484 13.688C79.06 14.296 80.468 18.36 80.468 21.048C80.468 22.808 79.38 27.384 75.956 27.384C74.388 27.384 73.396 26.04 73.396 24.76C73.396 21.464 77.332 20.6 77.332 17.112C77.332 16.408 77.012 14.712 74.868 14.712C72.308 14.712 70.036 17.72 70.036 21.016C70.036 24.408 71.252 26.488 71.86 27.288C67.7 28.056 65.14 24.12 65.14 20.44C65.14 11.384 73.812 9.88 73.812 5.432C73.812 4.44 73.46 3.896 73.46 3.896C74.132 3.704 78.004 4.152 78.004 7.992C78.004 10.008 76.308 12.088 74.484 13.688ZM92.3258 19.992C94.2458 19.992 95.1418 18.84 95.1418 17.592C95.1418 16.184 93.9898 14.68 91.8778 14.68C89.3177 14.68 86.5018 16.888 86.5018 20.536C86.5018 26.744 95.4618 27.48 95.4618 33.08C95.4618 34.808 93.9578 36.28 92.2618 36.664C92.3898 36.312 92.4538 35.96 92.4538 35.608C92.4538 33.368 89.8298 31.64 87.4298 31.64C85.4778 31.64 84.4858 32.12 83.5578 32.76C83.4618 32.696 83.4298 32.536 83.4298 32.312C83.4298 31.384 84.2938 29.432 86.5658 29.048C84.0698 27.8 81.7338 24.76 81.7338 21.56C81.7338 16.312 85.4778 13.208 89.7978 13.208C94.2458 13.208 97.1258 15.8 97.1258 19.288C97.1258 22.232 95.1418 25.048 91.9418 25.048C89.6058 25.048 88.1018 23.416 88.1018 22.04C88.1018 20.696 89.0618 19.64 90.3738 19.64C91.1098 19.64 91.5258 19.992 92.3258 19.992ZM103.093 27.384C99.5733 27.384 98.4213 22.68 98.4213 20.856C98.4213 17.816 99.9893 13.176 105.685 13.176C110.165 13.176 113.429 16.28 113.429 20.984C113.429 23.768 111.413 27.384 108.181 27.384C107.829 27.384 107.477 27.352 107.093 27.256C107.701 26.424 108.853 24.344 108.853 20.824C108.853 17.368 106.837 14.264 104.181 14.264C101.973 14.264 101.621 16.056 101.621 16.76C101.621 20.376 105.749 21.272 105.749 24.696C105.749 26.04 104.693 27.384 103.093 27.384ZM122.607 27.384C118.286 27.384 115.023 24.568 115.023 20.408V3.896C117.935 3.896 120.783 5.624 120.783 9.848C120.783 12.088 119.823 16.76 119.823 19.192C119.823 23.704 120.303 26.424 123.247 26.424C125.551 26.424 125.839 24.696 125.839 23.768C125.839 21.176 122.286 18.84 122.286 16.056C122.286 12.6 124.943 12.12 126.383 12.12C126.927 12.12 127.311 12.184 127.311 12.184C127.311 12.184 126.735 12.984 126.735 14.168C126.735 16.248 129.839 18.84 129.839 21.912C129.839 24.472 128.111 27.384 122.607 27.384ZM19.1378 59.384C14.8177 59.384 11.5538 56.568 11.5538 52.408V35.896C14.4658 35.896 17.3138 37.624 17.3138 41.848C17.3138 44.088 16.3538 48.76 16.3538 51.192C16.3538 55.704 16.8338 58.424 19.7778 58.424C22.0818 58.424 22.3698 56.696 22.3698 55.768C22.3698 53.176 18.8177 50.84 18.8177 48.056C18.8177 44.6 21.4738 44.12 22.9138 44.12C23.4578 44.12 23.8418 44.184 23.8418 44.184C23.8418 44.184 23.2658 44.984 23.2658 46.168C23.2658 48.248 26.3698 50.84 26.3698 53.912C26.3698 56.472 24.6418 59.384 19.1378 59.384ZM39.544 55.288C42.296 56.184 44.216 58.84 44.216 61.72C44.216 64.664 42.776 68.664 35.896 68.664C31.256 68.664 27.96 66.168 27.96 61.688V45.176C30.872 45.176 33.72 46.904 33.72 51.128C33.72 53.4 32.76 58.04 32.76 60.536C32.76 60.952 32.728 61.528 32.728 62.136C32.728 64.504 33.048 67.768 36.056 67.768C38.52 67.768 39.096 65.112 39.096 61.912C39.096 56.536 35.96 54.936 35.96 54.936H36.696H36.728C37.4 54.936 38.68 54.424 38.68 53.24C38.68 51.32 36.184 50.232 36.184 47.864C36.184 45.816 37.816 44.856 39.32 44.856C39.928 44.856 40.504 45.016 40.952 45.304C40.952 45.304 40.408 45.656 40.408 46.328C40.408 47.576 43.064 49.464 43.064 51.896C43.064 54.392 41.016 55.096 39.544 55.288ZM60.2998 51.736V60.952C60.2998 66.328 57.1318 68.6 52.8118 68.6C48.5238 68.6 45.4838 65.784 45.4838 61.624C45.4838 58.136 47.7558 57.4 49.0038 57.4C50.2198 57.4 52.0118 58.424 52.0118 60.408C52.0118 63 50.6678 63.096 50.6678 65.304C50.6678 66.68 51.5638 67.8 53.2278 67.8C55.4678 67.8 55.6278 65.88 55.6278 64.216V51.608C55.6278 48.056 54.3478 45.912 52.5558 45.912C51.5638 45.912 50.4118 46.616 50.4118 47.736C50.4118 50.584 52.9718 49.624 52.9718 52.376C52.9718 53.336 52.2358 54.392 50.6998 54.392C48.7478 54.392 47.2118 52.536 47.2118 50.712C47.2118 47.416 49.9638 45.176 53.4198 45.176C56.8438 45.176 60.2998 47.256 60.2998 51.736ZM70.5375 46.296C73.0335 46.296 77.0655 48.184 77.0655 52.376C77.0655 56.568 74.1535 59.384 69.7695 59.384C65.4495 59.384 61.8975 56.568 61.8975 52.376V42.488C61.8975 37.944 64.8095 35.896 68.2335 35.896C70.3135 35.896 71.4655 36.824 73.7055 36.824C75.4335 36.824 75.9455 36.376 76.4575 35.896C76.7775 36.536 76.9055 37.176 76.9055 37.784C76.9055 39.8 75.2415 41.4 72.9375 41.4C69.1615 41.4 68.8095 38.232 67.6895 38.232C66.9855 38.232 66.6015 38.776 66.6015 42.392V50.712C66.6015 55.864 69.4815 58.008 71.7855 58.008C73.4495 58.008 74.5055 56.984 74.5055 55.576C74.5055 51.704 67.3695 53.336 67.3695 49.208C67.3695 47.512 68.5535 46.296 70.5375 46.296ZM86.0388 44.216C85.9748 44.44 85.9427 44.632 85.9427 44.824C85.9427 47.48 92.0228 49.24 92.0228 54.04C92.0228 57.688 88.8548 59.384 85.2708 59.384C80.9508 59.384 78.3588 57.144 78.3588 53.848C78.3588 51.544 79.6708 50.424 81.0788 50.424C82.6148 50.424 83.6388 51.608 83.6388 53.08C83.6388 54.456 82.7428 54.904 82.7428 56.28C82.7428 57.4 83.6708 58.584 85.2388 58.584C87.1267 58.584 87.9268 57.24 87.9268 55.896C87.9268 52.312 82.9668 51.736 82.9668 47.448C82.9668 46.168 83.7988 44.504 86.0388 44.216Z" fill="#3F1000"/>
</svg>
